<svg preserveAspectRatio="none" width="100%" height="100%" overflow="visible" style="display: block;" viewBox="0 0 122 26" fill="none" xmlns="http://www.w3.org/2000/svg">
<g id="Frame" clip-path="url(#clip0_0_5882)">
<path id="Vector" d="M18.3592 24.0355H5.3299V25.5045H18.3592V24.0355Z" fill="var(--fill-0, #20305C)"/>
<path id="Vector_2" d="M18.4655 25.6105H5.22422V23.9295H18.4655V25.6105ZM5.43548 25.3985H18.2535V24.1415H5.43548V25.3985Z" fill="var(--fill-0, #20305C)"/>
<path id="Vector_3" d="M12.5794 25.4133V21.4646H11.1111V25.4133H12.5794Z" fill="var(--fill-0, #20305C)"/>
<path id="Vector_4" d="M12.6851 25.5186H11.0048V21.3587H12.6851V25.5186ZM11.2168 25.3066H12.4731V21.57H11.2168V25.3066Z" fill="var(--fill-0, #20305C)"/>
<path id="Vector_5" d="M20.1505 17.1705C19.1715 18.4232 17.9187 19.4369 16.4873 20.1346C15.056 20.8323 13.4838 21.1956 11.8903 21.1968C6.09412 21.1968 1.37897 16.4763 1.37897 10.672C1.37874 8.70123 1.93319 6.76986 2.97935 5.09728C4.02551 3.42475 5.52146 2.07803 7.29727 1.21012L6.6103 0.135247C4.65417 1.12041 3.01054 2.62679 1.86218 4.48693C0.713813 6.34706 0.10569 8.48812 0.105412 10.672C0.105412 17.1742 5.39216 22.4658 11.8911 22.4658C13.6586 22.4649 15.4032 22.0665 16.9948 21.3003C18.5864 20.5342 19.9839 19.42 21.0831 18.0409L20.1505 17.1705Z" fill="var(--fill-0, #20305C)"/>
<path id="Vector_6" d="M11.8913 22.5716C5.33396 22.5716 3.23921e-09 17.2346 3.23921e-09 10.6741C-5.14545e-05 8.47106 0.612987 6.31115 1.77099 4.43443C2.92899 2.55772 4.58659 1.03769 6.55956 0.0432925L6.6457 0L7.4473 1.25476L7.34093 1.30702C5.58321 2.16656 4.10257 3.49989 3.06704 5.15563C2.0315 6.81135 1.48258 8.72317 1.48257 10.6741C1.48257 16.418 6.15054 21.0907 11.8883 21.0907C13.4661 21.0923 15.0233 20.7339 16.4406 20.043C17.8578 19.3521 19.0975 18.3469 20.0645 17.1047L20.1394 17.0136L21.228 18.028L21.1665 18.1027C20.0591 19.4966 18.6494 20.6227 17.0431 21.3967C15.4368 22.1706 13.6755 22.5723 11.8913 22.5716ZM6.57228 0.275437C4.65623 1.25999 3.04913 2.75106 1.92711 4.58527C0.805091 6.41949 0.211457 8.52605 0.21126 10.6741C0.21126 17.1181 5.45084 22.3603 11.8905 22.3603C13.6269 22.3621 15.3415 21.9758 16.9082 21.2299C18.4749 20.484 19.8537 19.3975 20.9433 18.0504L20.1664 17.3256C19.1781 18.5673 17.9207 19.57 16.4882 20.2588C15.0558 20.9475 13.4855 21.3044 11.895 21.3027C6.03518 21.3027 1.27356 16.5351 1.27356 10.6741C1.27312 8.70367 1.82168 6.77183 2.85815 5.09375C3.89462 3.41563 5.37829 2.05717 7.1439 1.16967L6.57228 0.275437Z" fill="var(--fill-0, #20305C)"/>
<path id="Vector_7" d="M26.8767 23.4235V22.6927H29.0845C29.0642 24.6708 27.8461 25.4822 26.5868 25.4822C25.0458 25.4822 23.8344 24.3155 23.8344 22.8465C23.8344 21.3648 25.0188 20.1705 26.5741 20.1705C27.8057 20.1705 28.4919 20.808 28.5324 20.8483L28.0948 21.4917C28.0611 21.4447 27.5225 20.9491 26.5868 20.9491C25.4765 20.9491 24.7499 21.7806 24.7499 22.8532C24.7499 23.749 25.4563 24.7044 26.5936 24.7044C27.4618 24.7044 28.1218 24.161 28.1825 23.4235H26.8767Z" fill="var(--fill-0, #20305C)"/>
<path id="Vector_8" d="M31.8241 25.3544V20.2845H32.6856V24.5766H34.8191V25.3544H31.8241Z" fill="var(--fill-0, #20305C)"/>
<path id="Vector_9" d="M39.7525 25.4755C38.2047 25.4755 36.9731 24.2752 36.9731 22.8263C36.9731 21.3775 38.2047 20.1705 39.7525 20.1705C41.2874 20.1705 42.5123 21.3178 42.5123 22.8465C42.5123 24.2886 41.2448 25.4755 39.7525 25.4755ZM39.7525 20.9491C39.5077 20.9472 39.2651 20.9937 39.0385 21.0859C38.812 21.1782 38.606 21.3143 38.4327 21.4864C38.2593 21.6586 38.122 21.8632 38.0285 22.0886C37.9351 22.314 37.8875 22.5556 37.8885 22.7995C37.8885 23.7922 38.7126 24.7044 39.706 24.7044C39.9538 24.7081 40.1999 24.6625 40.4298 24.5702C40.6597 24.478 40.8688 24.3409 41.0449 24.1671C41.221 23.9934 41.3605 23.7863 41.4552 23.5581C41.55 23.33 41.5982 23.0852 41.5969 22.8383C41.5969 21.7537 40.7555 20.9491 39.7525 20.9491Z" fill="var(--fill-0, #20305C)"/>
<path id="Vector_10" d="M45.347 25.361V20.2852H46.5518C47.5816 20.2852 48.4365 20.6136 48.4365 21.5124C48.4365 22.1633 47.9871 22.4715 47.6828 22.6059C48.1738 22.7261 48.8537 23.0888 48.8537 23.9271C48.8537 24.7653 48.1795 25.3617 46.8079 25.3617L45.347 25.361ZM46.6126 22.3163C47.1779 22.3163 47.5278 22.1222 47.5278 21.693C47.5278 21.2638 47.1848 21.0623 46.7137 21.0623H46.2088V22.3163H46.6126ZM46.9621 24.5832C47.629 24.5832 47.9363 24.2682 47.9363 23.8368C47.9363 23.3672 47.5617 23.0522 46.933 23.0522H46.2062V24.581L46.9621 24.5832Z" fill="var(--fill-0, #20305C)"/>
<path id="Vector_11" d="M55.1798 25.3611L54.7165 24.3728H52.3538L51.8962 25.3649H50.9341L53.5451 20.0808L56.1432 25.3649L55.1798 25.3611ZM53.6246 22.0148C53.5846 21.9387 53.5551 21.8577 53.5369 21.7737C53.51 21.8567 53.4765 21.9373 53.4366 22.0148L52.7076 23.5906H54.3557L53.6246 22.0148Z" fill="var(--fill-0, #20305C)"/>
<path id="Vector_12" d="M58.6067 25.3544V20.2845H59.4685V24.5766H61.602V25.3544H58.6067Z" fill="var(--fill-0, #20305C)"/>
<path id="Vector_13" d="M67.8547 25.361V20.2852H68.716V25.361H67.8547Z" fill="var(--fill-0, #20305C)"/>
<path id="Vector_14" d="M72.6805 22.1491L72.6944 25.3588H71.8326L71.8395 20.1412L75.622 23.6151L75.6085 20.2823H76.4699L76.4634 25.5469L72.6805 22.1491Z" fill="var(--fill-0, #20305C)"/>
<path id="Vector_15" d="M78.9142 20.2845H79.8768L81.3976 23.6913C81.4241 23.7669 81.438 23.8464 81.438 23.9264C81.4406 23.8466 81.4545 23.7675 81.4784 23.6913L82.9324 20.2845H83.8945L81.4111 25.6298L78.9142 20.2845Z" fill="var(--fill-0, #20305C)"/>
<path id="Vector_16" d="M86.3518 25.3544V20.2913H89.2993V21.0691H87.2132V22.2769H88.8956V23.0547H87.2132V24.5766H89.5151V25.3544H86.3518Z" fill="var(--fill-0, #20305C)"/>
<path id="Vector_17" d="M92.3823 24.1408C92.6315 24.3827 93.096 24.6977 93.6878 24.6977C94.2266 24.6977 94.5357 24.4357 94.5357 24.0199C94.5357 23.437 94.0647 23.269 93.5536 23.0077C92.9007 22.6726 92.2546 22.3232 92.2546 21.532C92.2546 20.6468 93.0787 20.1705 93.9027 20.1705C94.4202 20.1731 94.9156 20.3778 95.2829 20.7408L94.8657 21.3783C94.6091 21.123 94.2796 20.9356 93.9097 20.9356C93.5393 20.9356 93.1559 21.1028 93.1559 21.4917C93.1559 22.4509 95.4505 22.2165 95.4505 24.0065C95.4505 24.7716 94.7845 25.4755 93.6266 25.4755C92.8928 25.4755 92.1865 25.0463 91.9238 24.7581L92.3823 24.1408Z" fill="var(--fill-0, #20305C)"/>
<path id="Vector_18" d="M99.328 25.3612V21.0691H97.8297V20.2913H101.686V21.0691H100.188V25.3612H99.328Z" fill="var(--fill-0, #20305C)"/>
<path id="Vector_19" d="M106.646 25.4755C105.097 25.4755 103.866 24.2752 103.866 22.8263C103.866 21.3775 105.097 20.1705 106.646 20.1705C108.18 20.1705 109.405 21.3178 109.405 22.8465C109.404 24.2886 108.139 25.4755 106.646 25.4755ZM106.646 20.9491C106.401 20.9471 106.158 20.9935 105.932 21.0857C105.705 21.1779 105.499 21.3141 105.326 21.4862C105.152 21.6583 105.015 21.863 104.921 22.0884C104.828 22.3139 104.78 22.5556 104.781 22.7995C104.781 23.7922 105.605 24.7044 106.599 24.7044C106.847 24.7081 107.093 24.6625 107.322 24.5702C107.553 24.478 107.762 24.3409 107.938 24.1672C108.114 23.9934 108.254 23.7864 108.348 23.5582C108.443 23.33 108.492 23.0853 108.49 22.8383C108.489 21.7537 107.648 20.9491 106.646 20.9491Z" fill="var(--fill-0, #20305C)"/>
<path id="Vector_20" d="M114.961 25.361L113.238 23.4837H113.104V25.361H112.242V20.2852H113.313C114.256 20.2852 115.474 20.527 115.474 21.8527C115.474 22.5507 114.928 23.2142 114.141 23.3553L116.153 25.3603L114.961 25.361ZM113.434 22.7387C114.194 22.7387 114.571 22.3499 114.571 21.9005C114.571 21.3578 114.228 21.069 113.494 21.069H113.097V22.7387H113.434Z" fill="var(--fill-0, #20305C)"/>
<path id="Vector_21" d="M118.505 24.1408C118.754 24.3827 119.219 24.6977 119.811 24.6977C120.349 24.6977 120.659 24.4357 120.659 24.0199C120.659 23.437 120.188 23.269 119.676 23.0077C119.023 22.6726 118.377 22.3232 118.377 21.532C118.377 20.6468 119.201 20.1705 120.025 20.1705C120.542 20.1728 121.037 20.3776 121.404 20.7408L120.987 21.3783C120.731 21.123 120.402 20.9356 120.032 20.9356C119.661 20.9356 119.277 21.1028 119.277 21.4917C119.277 22.4509 121.573 22.2165 121.573 24.0065C121.573 24.7716 120.907 25.4755 119.749 25.4755C119.015 25.4755 118.309 25.0463 118.046 24.7581L118.505 24.1408Z" fill="var(--fill-0, #20305C)"/>
<path id="Vector_22" d="M32.2101 2.7768H34.4838V14.5661C33.4716 15.6283 31.7306 16.4777 29.0337 16.4777C25.5876 16.4777 23.6151 14.743 23.6151 11.2526V2.7768H25.8872V10.0173C25.8872 13.3449 26.6874 14.478 29.4405 14.478C30.5425 14.478 31.5381 14.1944 32.2123 13.6987L32.2101 2.7768Z" fill="var(--fill-0, #CF132D)"/>
<path id="Vector_23" d="M40.7025 16.1769V2.7768H42.9762V16.1769H40.7025Z" fill="var(--fill-0, #CF132D)"/>
<path id="Vector_24" d="M51.4681 7.69824L51.5037 16.1771H49.23L49.2469 2.40522L59.2318 11.5745L59.1958 2.77694H61.4717L61.4539 16.6727L51.4681 7.69824Z" fill="var(--fill-0, #CF132D)"/>
<path id="Vector_25" d="M69.945 7.69824L69.981 16.1771H67.7065L67.7247 2.40522L77.7083 11.5745L77.6731 2.77694H79.9468L79.9299 16.6727L69.945 7.69824Z" fill="var(--fill-0, #CF132D)"/>
<path id="Vector_26" d="M86.2008 16.1619V2.80058H93.9854V4.85402H88.478V8.03984H92.9191V10.0933H88.478V14.1114H94.5537V16.1619H86.2008Z" fill="var(--fill-0, #CF132D)"/>
<path id="Vector_27" d="M100.148 12.9522C100.805 13.5896 102.032 14.4211 103.594 14.4211C105.018 14.4211 105.833 13.7314 105.833 12.6297C105.833 11.0898 104.589 10.6471 103.239 9.95666C101.516 9.07214 99.8105 8.15105 99.8105 6.06251C99.8105 3.72614 101.978 2.46914 104.163 2.46914C106.171 2.46914 107.521 3.65523 107.805 3.97396L106.703 5.6557C106.029 4.9839 105.158 4.48752 104.181 4.48752C103.204 4.48752 102.191 4.93017 102.191 5.95652C102.191 8.48771 108.249 7.86813 108.249 12.5946C108.249 14.61 106.491 16.4709 103.435 16.4709C101.498 16.4709 99.633 15.3385 98.94 14.5772L100.148 12.9522Z" fill="var(--fill-0, #CF132D)"/>
<path id="Vector_28" d="M113.898 12.9522C114.555 13.5896 115.782 14.4211 117.344 14.4211C118.768 14.4211 119.583 13.7314 119.583 12.6297C119.583 11.0898 118.34 10.6471 116.989 9.95666C115.266 9.07214 113.561 8.15105 113.561 6.06251C113.561 3.72614 115.728 2.46914 117.913 2.46914C119.921 2.46914 121.271 3.65523 121.555 3.97396L120.453 5.6557C119.779 4.9839 118.908 4.48752 117.931 4.48752C116.954 4.48752 115.941 4.93017 115.941 5.95652C115.941 8.48771 121.999 7.86813 121.999 12.5946C121.999 14.61 120.241 16.4709 117.185 16.4709C115.248 16.4709 113.383 15.3385 112.69 14.5772L113.898 12.9522Z" fill="var(--fill-0, #CF132D)"/>
<path id="Vector_29" d="M13.3765 12.8111V10.854H20.2192C20.1735 17.0196 16.1993 19.6746 12.0662 19.6746C7.03041 19.6746 2.96328 15.7364 2.96328 10.8764C2.96328 5.90356 6.84762 1.96534 12.0872 1.96534C16.1326 1.96534 18.4108 4.17107 18.5239 4.30543L17.3942 5.90356C17.2818 5.76845 15.2262 3.92326 12.0423 3.92326C7.84177 3.92326 5.26692 6.98365 5.26692 10.9211C5.26692 14.4294 8.11369 17.7391 12.2228 17.7391C15.1587 17.7391 17.6654 15.8939 17.9366 12.8126L13.3765 12.8111Z" fill="var(--fill-0, #CF132D)"/>
</g>
<defs>
<clipPath id="clip0_0_5882">
<rect width="122" height="26" fill="white"/>
</clipPath>
</defs>
</svg>
